# xmcd
#
# Track frame offsets: 
#        150
#        13464
#        28165
#        45474
#        59712
#        78489
#        92614
#        108598
#        120306
#        136275
#        146740
#        162212
#        173832
#        194263
#        207421
#
# Disc length: 3117 seconds
#
# Revision: 0
# Processed by: cddbd v1.5.2PL0 Copyright (c) Steve Scherf et al.
# Submitted via: ExactAudioCopy v0.99pb5
#
DISCID=d60c2b0f
DTITLE=Reggie Wayne Morris - Gotcha By Your Blues
DYEAR=1997
DGENRE=Blues
TTITLE0=No Gossip
TTITLE1=Reggie's Cream
TTITLE2=Going Down Slow
TTITLE3=Baby Scratch My Back
TTITLE4=Don't Forget Lynn (Behind The Bar)
TTITLE5=Walkin' The Dog
TTITLE6=Chiltin' Con Carne
TTITLE7=I Woke Up This Morning
TTITLE8=Left Alone
TTITLE9=E-Mail Blues
TTITLE10=All Along The Watchtower
TTITLE11=Help Me
TTITLE12=Don't Play With My Feelings
TTITLE13=Tore Down
TTITLE14=Can't Always Get What You Want
EXTD=
EXTT0=
EXTT1=
EXTT2=
EXTT3=
EXTT4=
EXTT5=
EXTT6=
EXTT7=
EXTT8=
EXTT9=
EXTT10=
EXTT11=
EXTT12=
EXTT13=
EXTT14=
PLAYORDER=
